<?xml version="1.0" encoding="UTF-8" standalone="no"?>
<!DOCTYPE svg PUBLIC "-//W3C//DTD SVG 1.1//EN" "http://www.w3.org/Graphics/SVG/1.1/DTD/svg11.dtd">
<svg xmlns="http://www.w3.org/2000/svg" version="1.1" viewBox="0.00 0.00 500.00 500.00">
<g stroke-width="2.00" fill="none" stroke-linecap="butt">
<path stroke="#ee5025" vector-effect="non-scaling-stroke" d="
  M 206.45 183.33
  Q 199.13 181.45 196.45 181.55
  Q 191.73 181.72 188.21 183.43
  C 183.04 185.95 184.84 191.37 187.84 194.82
  Q 190.46 197.82 192.82 200.49
  C 197.16 205.39 200.88 211.65 204.88 215.92
  Q 212.86 224.46 217.29 230.95
  C 219.66 234.43 219.29 239.24 216.42 242.43
  Q 214.89 244.12 213.17 245.68
  Q 207.53 250.82 201.77 255.44
  C 199.39 257.35 197.38 259.48 195.07 261.38
  C 189.86 265.66 184.96 270.89 180.37 275.60
  Q 180.09 275.89 180.09 276.30
  Q 180.09 276.49 180.16 276.66
  A 0.38 0.38 0.0 0 0 180.70 276.83
  Q 188.42 272.28 195.13 267.14
  Q 199.86 263.51 204.48 260.31
  Q 209.26 257.00 213.74 253.35
  Q 219.77 248.43 225.60 243.77
  Q 228.21 241.68 232.22 239.18
  C 235.21 237.32 237.90 234.90 240.67 232.74
  A 1.30 1.30 0.0 0 1 242.53 233.00
  L 247.17 239.45"
/>
<path stroke="#f58426" vector-effect="non-scaling-stroke" d="
  M 276.96 187.52
  Q 277.23 188.04 276.93 188.59
  Q 276.62 189.19 276.50 188.53
  Q 276.47 188.38 276.26 188.40
  Q 275.61 188.45 275.74 189.10
  Q 276.03 190.55 277.04 192.11
  Q 278.97 195.10 281.04 197.81
  A 0.64 0.62 -56.1 0 1 281.14 198.37
  Q 281.01 198.80 281.38 199.00
  Q 281.44 199.04 281.51 199.01
  Q 281.56 198.99 281.55 198.94
  Q 281.47 198.52 281.74 198.85
  Q 284.43 202.28 287.20 205.73
  Q 287.50 206.11 287.99 206.08
  Q 295.49 205.68 301.35 206.38
  Q 309.87 207.39 315.56 214.48
  Q 316.64 215.82 317.00 217.67
  Q 317.39 219.62 316.98 221.32
  Q 315.96 225.66 312.39 229.58
  Q 309.83 232.39 306.39 235.49
  Q 304.48 237.22 299.86 240.73
  Q 295.11 244.34 290.72 248.68"
/>
</g>
<path fill="#ea3624" d="
  M 206.45 183.33
  Q 199.13 181.45 196.45 181.55
  Q 191.73 181.72 188.21 183.43
  C 183.04 185.95 184.84 191.37 187.84 194.82
  Q 190.46 197.82 192.82 200.49
  C 197.16 205.39 200.88 211.65 204.88 215.92
  Q 212.86 224.46 217.29 230.95
  C 219.66 234.43 219.29 239.24 216.42 242.43
  Q 214.89 244.12 213.17 245.68
  Q 207.53 250.82 201.77 255.44
  C 199.39 257.35 197.38 259.48 195.07 261.38
  C 189.86 265.66 184.96 270.89 180.37 275.60
  Q 180.09 275.89 180.09 276.30
  Q 180.09 276.49 180.16 276.66
  A 0.38 0.38 0.0 0 0 180.70 276.83
  Q 188.42 272.28 195.13 267.14
  Q 199.86 263.51 204.48 260.31
  Q 209.26 257.00 213.74 253.35
  Q 219.77 248.43 225.60 243.77
  Q 228.21 241.68 232.22 239.18
  C 235.21 237.32 237.90 234.90 240.67 232.74
  A 1.30 1.30 0.0 0 1 242.53 233.00
  L 247.17 239.45
  Q 244.22 241.52 241.35 244.11
  Q 234.05 250.69 226.74 256.63
  Q 219.55 262.48 212.63 268.77
  Q 205.66 275.12 198.37 281.14
  C 197.45 281.90 196.37 281.92 195.25 281.93
  Q 179.97 282.07 164.77 281.98
  A 1.42 1.41 -1.5 0 1 163.36 280.66
  Q 163.34 280.28 163.93 279.69
  C 168.99 274.56 174.41 269.69 179.17 264.28
  C 181.42 261.73 184.16 259.71 186.52 257.28
  C 190.24 253.45 194.36 249.66 197.85 245.50
  C 199.52 243.49 201.74 241.19 202.73 238.96
  Q 205.10 233.65 201.75 228.48
  Q 194.54 217.34 184.46 203.55
  Q 179.68 197.02 174.88 189.81
  Q 170.41 183.09 165.32 176.25
  A 1.50 1.49 43.2 0 1 165.26 174.56
  Q 165.72 173.83 166.52 173.82
  Q 180.11 173.57 193.24 173.67
  Q 197.06 173.70 199.71 176.00
  Q 203.58 179.37 206.45 183.33
  Z"
/>
<path fill="#f26925" d="
  M 206.45 183.33
  Q 217.67 197.85 228.52 212.21
  Q 229.73 213.82 231.35 215.17
  C 234.16 217.52 237.30 214.00 238.98 211.93
  Q 240.39 210.17 242.18 208.47
  Q 248.73 202.21 255.33 196.15
  C 258.71 193.04 260.97 189.10 265.75 187.99
  Q 269.24 187.18 276.96 187.52
  Q 277.23 188.04 276.93 188.59
  Q 276.62 189.19 276.50 188.53
  Q 276.47 188.38 276.26 188.40
  Q 275.61 188.45 275.74 189.10
  Q 276.03 190.55 277.04 192.11
  Q 278.97 195.10 281.04 197.81
  A 0.64 0.62 -56.1 0 1 281.14 198.37
  Q 281.01 198.80 281.38 199.00
  Q 281.44 199.04 281.51 199.01
  Q 281.56 198.99 281.55 198.94
  Q 281.47 198.52 281.74 198.85
  Q 284.43 202.28 287.20 205.73
  Q 287.50 206.11 287.99 206.08
  Q 295.49 205.68 301.35 206.38
  Q 309.87 207.39 315.56 214.48
  Q 316.64 215.82 317.00 217.67
  Q 317.39 219.62 316.98 221.32
  Q 315.96 225.66 312.39 229.58
  Q 309.83 232.39 306.39 235.49
  Q 304.48 237.22 299.86 240.73
  Q 295.11 244.34 290.72 248.68
  Q 284.79 252.48 278.52 256.50
  C 273.52 259.71 268.11 262.24 263.32 265.65
  Q 257.87 269.53 252.71 272.66
  Q 251.44 273.43 250.06 272.64
  A 1.87 1.87 0.0 0 1 249.51 269.89
  Q 250.74 268.29 252.29 266.94
  Q 270.30 251.23 287.30 234.94
  Q 290.13 232.22 292.45 229.31
  C 296.11 224.72 298.79 216.00 290.36 214.00
  Q 282.55 212.14 276.61 215.59
  Q 270.24 219.30 262.53 226.53
  Q 255.30 233.31 247.17 239.45
  L 242.53 233.00
  A 1.30 1.30 0.0 0 0 240.67 232.74
  C 237.90 234.90 235.21 237.32 232.22 239.18
  Q 228.21 241.68 225.60 243.77
  Q 219.77 248.43 213.74 253.35
  Q 209.26 257.00 204.48 260.31
  Q 199.86 263.51 195.13 267.14
  Q 188.42 272.28 180.70 276.83
  A 0.38 0.38 0.0 0 1 180.16 276.66
  Q 180.09 276.49 180.09 276.30
  Q 180.09 275.89 180.37 275.60
  C 184.96 270.89 189.86 265.66 195.07 261.38
  C 197.38 259.48 199.39 257.35 201.77 255.44
  Q 207.53 250.82 213.17 245.68
  Q 214.89 244.12 216.42 242.43
  C 219.29 239.24 219.66 234.43 217.29 230.95
  Q 212.86 224.46 204.88 215.92
  C 200.88 211.65 197.16 205.39 192.82 200.49
  Q 190.46 197.82 187.84 194.82
  C 184.84 191.37 183.04 185.95 188.21 183.43
  Q 191.73 181.72 196.45 181.55
  Q 199.13 181.45 206.45 183.33
  Z"
/>
<path fill="#f79f26" d="
  M 276.96 187.52
  Q 296.65 187.48 316.36 187.48
  Q 322.84 187.48 325.77 188.69
  C 334.92 192.47 339.69 201.13 338.78 210.99
  C 338.11 218.18 333.03 224.26 327.21 228.08
  Q 319.24 233.30 310.41 237.79
  Q 305.68 240.20 300.54 243.25
  Q 295.84 246.04 290.72 248.68
  Q 295.11 244.34 299.86 240.73
  Q 304.48 237.22 306.39 235.49
  Q 309.83 232.39 312.39 229.58
  Q 315.96 225.66 316.98 221.32
  Q 317.39 219.62 317.00 217.67
  Q 316.64 215.82 315.56 214.48
  Q 309.87 207.39 301.35 206.38
  Q 295.49 205.68 287.99 206.08
  Q 287.50 206.11 287.20 205.73
  Q 284.43 202.28 281.74 198.85
  Q 281.47 198.52 281.55 198.94
  Q 281.56 198.99 281.51 199.01
  Q 281.44 199.04 281.38 199.00
  Q 281.01 198.80 281.14 198.37
  A 0.64 0.62 -56.1 0 0 281.04 197.81
  Q 278.97 195.10 277.04 192.11
  Q 276.03 190.55 275.74 189.10
  Q 275.61 188.45 276.26 188.40
  Q 276.47 188.38 276.50 188.53
  Q 276.62 189.19 276.93 188.59
  Q 277.23 188.04 276.96 187.52
  Z"
/>
<rect fill="#2b2824" x="277.74" y="298.22" width="3.98" height="43.26" rx="0.74"/>
<path fill="#2b2824" d="
  M 260.73 307.18
  C 260.18 308.54 259.61 309.87 258.86 311.13
  Q 253.46 320.21 247.34 329.70
  A 1.16 1.15 10.0 0 1 246.60 330.21
  Q 244.88 330.57 243.83 329.12
  Q 241.57 326.03 239.78 322.57
  Q 235.98 315.22 230.97 306.86
  Q 230.34 305.80 230.33 307.03
  L 230.22 340.84
  A 0.56 0.56 0.0 0 1 229.66 341.40
  L 226.70 341.40
  A 0.71 0.71 0.0 0 1 226.00 340.70
  L 225.90 300.29
  A 1.17 1.17 0.0 0 1 226.36 299.36
  Q 229.42 297.01 231.59 300.07
  C 235.02 304.89 237.84 310.29 240.40 315.62
  Q 242.31 319.62 244.90 323.28
  Q 245.89 324.68 246.76 323.20
  Q 252.06 314.21 257.56 304.74
  C 258.53 303.07 259.84 301.76 260.61 299.95
  C 261.60 297.60 265.40 297.69 265.39 300.61
  Q 265.33 320.93 265.28 341.04
  Q 265.28 341.32 265.00 341.32
  L 261.36 341.28
  Q 261.16 341.28 261.16 341.08
  L 261.25 307.28
  Q 261.25 305.88 260.73 307.18
  Z"
/>
<path fill="#2b2824" d="
  M 299.59 337.26
  L 324.80 337.33
  A 0.80 0.80 0.0 0 1 325.60 338.12
  L 325.63 340.68
  A 0.80 0.80 0.0 0 1 324.83 341.49
  L 295.06 341.49
  A 0.80 0.80 0.0 0 1 294.26 340.69
  L 294.29 299.04
  A 0.80 0.80 0.0 0 1 295.10 298.24
  L 298.02 298.27
  A 0.80 0.80 0.0 0 1 298.81 299.07
  L 298.79 336.46
  A 0.80 0.80 0.0 0 0 299.59 337.26
  Z"
/>
<path fill="#2b2824" d="
  M 151.40 326.77
  L 140.26 340.94
  A 1.47 1.46 -70.9 0 1 139.11 341.50
  L 132.96 341.53
  A 1.64 1.63 -72.6 0 1 131.62 338.96
  Q 136.24 332.37 141.57 325.57
  C 142.90 323.87 144.45 322.36 145.69 320.68
  Q 146.05 320.18 145.68 319.68
  L 131.27 300.90
  A 1.33 1.32 71.1 0 1 132.31 298.77
  L 138.73 298.75
  Q 139.50 298.75 139.99 299.35
  L 151.19 313.12
  Q 151.46 313.44 151.73 313.13
  Q 154.57 309.82 156.64 306.30
  C 158.02 303.97 159.90 302.34 161.50 300.23
  Q 162.28 299.19 163.58 299.09
  Q 167.77 298.77 170.31 299.33
  A 1.16 1.16 0.0 0 1 170.97 301.19
  L 156.95 318.77
  A 1.59 1.58 44.9 0 0 156.96 320.75
  L 171.65 338.84
  Q 173.43 341.04 170.62 341.41
  Q 168.04 341.75 165.20 341.73
  Q 163.31 341.72 162.20 340.20
  L 152.37 326.78
  A 0.61 0.61 0.0 0 0 151.40 326.77
  Z"
/>
<path fill="#2b2824" d="
  M 185.68 333.82
  L 185.54 347.34
  Q 185.52 349.70 183.16 349.66
  L 179.76 349.60
  Q 177.71 349.57 177.71 347.51
  L 177.71 327.54
  A 2.38 2.38 0.0 0 1 180.10 325.15
  Q 189.92 325.17 201.25 325.15
  Q 204.77 325.14 207.72 322.13
  Q 209.85 319.96 209.82 316.01
  C 209.77 310.76 206.36 306.60 200.99 306.65
  Q 190.38 306.75 180.24 306.66
  Q 177.83 306.64 177.85 304.22
  L 177.88 301.03
  Q 177.90 298.84 180.09 298.88
  Q 189.33 299.07 199.52 299.03
  Q 205.87 299.01 211.82 302.50
  C 217.31 305.73 219.01 313.79 217.92 319.45
  Q 217.27 322.85 214.61 326.03
  C 207.58 334.44 196.55 333.55 186.34 333.19
  Q 185.69 333.17 185.68 333.82
  Z"
/>
<path fill="#2b2824" d="
  M 334.71 317.82
  L 367.01 317.80
  Q 367.97 317.80 367.94 318.76
  L 367.87 321.04
  Q 367.84 321.94 366.95 321.94
  L 334.36 321.94
  A 0.34 0.34 0.0 0 0 334.02 322.34
  C 335.39 329.91 341.75 337.24 350.02 337.37
  Q 358.70 337.51 367.47 337.45
  Q 368.20 337.45 368.20 338.18
  L 368.17 340.79
  Q 368.16 341.45 367.51 341.45
  Q 358.85 341.55 349.61 341.45
  Q 345.24 341.41 340.87 338.89
  C 327.83 331.38 325.29 314.46 336.54 304.29
  Q 339.03 302.03 344.25 299.94
  Q 347.58 298.61 351.60 298.64
  Q 360.26 298.70 367.55 298.70
  Q 368.08 298.70 368.07 299.23
  L 368.00 301.99
  A 0.49 0.49 0.0 0 1 367.50 302.47
  Q 357.77 302.30 349.01 302.60
  C 341.43 302.87 335.66 310.02 334.03 316.96
  Q 333.82 317.82 334.71 317.82
  Z"
/>
</svg>
